<svg width="32" height="32" viewBox="0 0 32 32" fill="none" xmlns="http://www.w3.org/2000/svg">
  <path d="M6 2C4.89543 2 4 2.89543 4 4V28C4 29.1046 4.89543 30 6 30H26C27.1046 30 28 29.1046 28 28V10L20 2H6Z" fill="#F7FAFC"/>
  <path d="M6 2C4.89543 2 4 2.89543 4 4V28C4 29.1046 4.89543 30 6 30H26C27.1046 30 28 29.1046 28 28V10L20 2H6Z" stroke="#CBD5E0" stroke-width="2"/>
  <path d="M20 2V10H28L20 2Z" fill="#E2E8F0"/>
  <path d="M20 2V10H28" stroke="#CBD5E0" stroke-width="2"/>
  <rect x="8" y="14" width="12" height="2" fill="#A0AEC0"/>
  <rect x="8" y="18" width="16" height="2" fill="#A0AEC0"/>
  <rect x="8" y="22" width="10" height="2" fill="#A0AEC0"/>
</svg>