<svg width="32" height="32" viewBox="0 0 32 32" fill="none" xmlns="http://www.w3.org/2000/svg">
  <path d="M6 4C4.89543 4 4 4.89543 4 6V26C4 27.1046 4.89543 28 6 28H26C27.1046 28 28 27.1046 28 26V6C28 4.89543 27.1046 4 26 4H6Z" fill="#E3F2FD"/>
  <path d="M6 4C4.89543 4 4 4.89543 4 6V26C4 27.1046 4.89543 28 6 28H26C27.1046 28 28 27.1046 28 26V6C28 4.89543 27.1046 4 26 4H6Z" stroke="#1976D2" stroke-width="2"/>
  <path d="M8 8H24V10H8V8Z" fill="#1976D2"/>
  <path d="M8 12H20V14H8V12Z" fill="#1976D2"/>
  <path d="M8 16H24V18H8V16Z" fill="#1976D2"/>
  <path d="M8 20H18V22H8V20Z" fill="#1976D2"/>
</svg>